<svg xmlns="http://www.w3.org/2000/svg" width="288" height="87" fill="none"><g clip-path="url(#clip0)"><path d="M24.113 57.417c-2.183 0-4.316-.649-6.13-1.864a11.057 11.057 0 0 1-4.064-4.965 11.09 11.09 0 0 1 2.392-12.056 11.006 11.006 0 0 1 12.024-2.398 11.04 11.04 0 0 1 4.951 4.075 11.084 11.084 0 0 1 1.86 6.146 11.095 11.095 0 0 1-3.237 7.817 11.036 11.036 0 0 1-7.796 3.245zm0-35.22a24.067 24.067 0 0 0-13.4 4.064 24.163 24.163 0 0 0-8.889 10.843A24.236 24.236 0 0 0 .442 51.072c.927 4.69 3.22 9 6.59 12.383a24.093 24.093 0 0 0 12.341 6.626c4.677.936 9.525.461 13.933-1.365a24.127 24.127 0 0 0 10.828-8.897 24.223 24.223 0 0 0-2.976-30.53 24.11 24.11 0 0 0-7.82-5.246 24.057 24.057 0 0 0-9.225-1.847m34.024 14.47l25.412-.053L43.794 76.49l10.197 10.241 49.898-50.155h.018v-14.38h-45.77v14.47zm70.968 15.167a7.818 7.818 0 0 1-4.35-1.324 7.854 7.854 0 0 1-3.329-8.059 7.857 7.857 0 0 1 2.143-4.02 7.811 7.811 0 0 1 8.533-1.702 7.842 7.842 0 0 1 4.833 7.254 7.862 7.862 0 0 1-2.293 5.551 7.82 7.82 0 0 1-5.537 2.3zm21.746-7.851a21.844 21.844 0 0 0-3.066-11.169 21.77 21.77 0 0 0-8.338-8.017 21.701 21.701 0 0 0-22.256.94 21.781 21.781 0 0 0-7.636 8.693 21.854 21.854 0 0 0 1.88 22.256 21.761 21.761 0 0 0 8.986 7.28l-13.115 13.168L117.147 87l28.099-28.298a21.697 21.697 0 0 0 5.659-14.667M39.684 0L9.004.071v13.025h30.68V0z" fill="#fff"/><path d="M165.621 11.223v64.536" stroke="#fff" stroke-width=".61" stroke-miterlimit="10"/><path d="M185.356 32.955c.107 0 .161 0 .161.125v1.784a.15.15 0 0 1-.048.108.143.143 0 0 1-.113.035h-5.926a.16.16 0 0 1-.16-.143V23.766a.16.16 0 0 1 .16-.125h1.78c.037 0 .073.011.102.034.03.023.05.055.058.091v9.19h3.986zm8.186.803h-3.683l-.445 1.213a.143.143 0 0 1-.143 0h-2.011c-.124 0-.177 0-.142-.178l4.449-11.49c0-.108.249-.108.285 0l4.449 11.49c0 .09 0 .178-.143.178h-2.011a.138.138 0 0 1-.124 0l-.481-1.213zm-2.989-1.91h2.295l-1.139-3.425-1.156 3.426zm21.888-4.763c0 3.354-3.559 3.39-3.862 3.39h-1.69v4.478a.142.142 0 0 1-.143.143h-1.868a.155.155 0 0 1-.096-.046.155.155 0 0 1-.046-.097V23.766a.16.16 0 0 1 .05-.086.163.163 0 0 1 .092-.039h3.701c.463 0 3.862.072 3.862 3.444zm-2.171 0c0-1.285-1.442-1.338-1.78-1.338h-1.69v2.623h1.69c.374 0 1.78-.036 1.78-1.285zm10.784 5.87a.14.14 0 0 1 .106.029.153.153 0 0 1 .037.042.144.144 0 0 1 .017.054v1.784a.157.157 0 0 1-.053.102.159.159 0 0 1-.107.041h-5.926a.143.143 0 0 1-.16-.143V23.766a.139.139 0 0 1 .054-.096.145.145 0 0 1 .106-.029h1.78a.145.145 0 0 1 .106.03.135.135 0 0 1 .036.042.13.13 0 0 1 .018.053v9.19h3.986zm8.186.803h-3.702l-.427 1.213a.159.159 0 0 1-.16 0h-1.993c-.125 0-.196 0-.142-.178l4.431-11.49a.18.18 0 0 1 .064-.063.175.175 0 0 1 .173 0 .176.176 0 0 1 .065.062l4.431 11.49c0 .09 0 .18-.124.18h-2.029a.162.162 0 0 1-.125 0l-.462-1.214zm-2.99-1.91h2.278l-1.139-3.425-1.139 3.426zm15.571.269a.232.232 0 0 1 .214 0l1.299 1.32a.143.143 0 0 1 0 .196 5.723 5.723 0 0 1-4.004 1.642 5.536 5.536 0 0 1-4.111-1.666 5.58 5.58 0 0 1-1.584-4.151 5.721 5.721 0 0 1 .86-3.25 5.682 5.682 0 0 1 8.839-1.032.143.143 0 0 1 0 .196l-1.299 1.285a.163.163 0 0 1-.107.04.159.159 0 0 1-.107-.04 3.555 3.555 0 0 0-2.491-1.035 3.55 3.55 0 0 0-2.616 1.138 3.57 3.57 0 0 0-.943 2.698 3.565 3.565 0 0 0 4.199 3.622 3.557 3.557 0 0 0 1.851-.963zm6.424-6.406v2.64h4.449a.142.142 0 0 1 .142.126v1.784a.125.125 0 0 1-.142.071h-4.449v2.677h5.339a.142.142 0 0 1 .16.124v1.785a.157.157 0 0 1-.053.102.159.159 0 0 1-.107.04h-7.367a.161.161 0 0 1-.161-.142V23.766a.161.161 0 0 1 .161-.125h7.367a.16.16 0 0 1 .16.125v1.784a.161.161 0 0 1-.16.125l-5.339.036z" fill="#fff"/><path d="M181.513 32.955v-9.171a.18.18 0 0 0-.019-.06.154.154 0 0 0-.041-.049.156.156 0 0 0-.118-.034h-1.78a.157.157 0 0 0-.107.04.157.157 0 0 0-.053.103v11.134c.004.04.023.076.053.102.029.026.067.04.107.04h5.926a.159.159 0 0 0 .107-.04.157.157 0 0 0 .053-.102v-1.785a.16.16 0 0 0-.16-.124l-3.968-.054zm10.196-4.532l1.139 3.426h-2.295l1.156-3.426zm2.26 6.548a.162.162 0 0 0 .143 0h2.011c.106 0 .178 0 .124-.178l-4.431-11.473a.158.158 0 0 0-.142-.087.16.16 0 0 0-.143.087l-4.448 11.473c0 .09 0 .178.142.178h2.011a.158.158 0 0 0 .142 0l.445-1.195h3.684l.462 1.195zm14.628-6.601h-1.779v-2.623h1.779c.249 0 1.78 0 1.78 1.338s-1.495 1.285-1.78 1.285zm0-4.729h-3.701a.161.161 0 0 0-.143.143v11.17a.16.16 0 0 0 .143.142h1.779a.143.143 0 0 0 .16-.143v-4.478h1.78c.267 0 3.844 0 3.844-3.39s-3.417-3.444-3.862-3.444zm8.506 9.314v-9.171a.16.16 0 0 0-.16-.143h-1.779a.161.161 0 0 0-.16.083.159.159 0 0 0-.018.06v11.134a.159.159 0 0 0 .178.142h5.908a.144.144 0 0 0 .112-.034.159.159 0 0 0 .036-.05.15.15 0 0 0 .012-.058v-1.785a.13.13 0 0 0-.018-.053.135.135 0 0 0-.086-.068.145.145 0 0 0-.056-.003l-3.969-.054zm10.304-4.532l1.139 3.426h-2.296l1.157-3.426zm2.313 6.548a.144.144 0 0 0 .125 0h2.011c.124 0 .178 0 .142-.178l-4.449-11.473a.158.158 0 0 0-.142-.087.163.163 0 0 0-.084.024.166.166 0 0 0-.059.063l-4.431 11.473c0 .09 0 .178.143.178h1.993a.14.14 0 0 0 .142 0l.445-1.195h3.684l.48 1.195zm9.627-1.855a3.439 3.439 0 0 1-2.604-1.06 3.467 3.467 0 0 1-.955-2.652 3.58 3.58 0 0 1 .944-2.698 3.556 3.556 0 0 1 2.615-1.138 3.555 3.555 0 0 1 2.492 1.053.263.263 0 0 0 .231 0l1.281-1.285a.12.12 0 0 0 .035-.043.116.116 0 0 0 .013-.055.116.116 0 0 0-.013-.054.12.12 0 0 0-.035-.044 5.667 5.667 0 0 0-8.824 1.017 5.7 5.7 0 0 0-.856 3.247 5.577 5.577 0 0 0 1.578 4.145 5.548 5.548 0 0 0 4.098 1.672 5.685 5.685 0 0 0 4.004-1.641.12.12 0 0 0 .035-.044.116.116 0 0 0 .013-.055.116.116 0 0 0-.013-.054.12.12 0 0 0-.035-.044l-1.334-1.267a.196.196 0 0 0-.232 0 3.552 3.552 0 0 1-2.438 1zm14.29-7.405c.107 0 .16 0 .16-.125v-1.784a.14.14 0 0 0-.16-.143h-7.367a.155.155 0 0 0-.096.046.155.155 0 0 0-.046.097v11.134c.003.036.02.07.046.096a.155.155 0 0 0 .096.046h7.367a.141.141 0 0 0 .16-.142V33.15s0-.125-.16-.125h-5.338v-2.694h4.395a.143.143 0 0 0 .101-.042.145.145 0 0 0 .041-.1v-1.642a.145.145 0 0 0-.041-.1.143.143 0 0 0-.101-.043h-4.431v-2.694h5.374z" stroke="#fff" stroke-width=".06" stroke-miterlimit="10"/><path d="M179.288 40.877a.129.129 0 0 1 .018-.053.135.135 0 0 1 .086-.068.143.143 0 0 1 .056-.004h1.78a.14.14 0 0 1 .106.03.143.143 0 0 1 .054.096v11.15a.157.157 0 0 1-.053.103.159.159 0 0 1-.107.04h-1.78a.162.162 0 0 1-.16-.143v-11.15zm14.859 11.152a.15.15 0 0 1-.012.059.144.144 0 0 1-.148.084h-1.779-.125l-5.232-7.566v7.512a.142.142 0 0 1-.042.1.139.139 0 0 1-.1.043h-1.78a.126.126 0 0 1-.107-.035.136.136 0 0 1-.031-.05.127.127 0 0 1-.004-.058V40.859a.125.125 0 0 1 .042-.095.132.132 0 0 1 .047-.026.121.121 0 0 1 .053-.004h1.869a.122.122 0 0 1 .106 0l5.232 7.655v-7.53a.146.146 0 0 1 .105-.12.142.142 0 0 1 .056-.005h1.779a.142.142 0 0 1 .16.125l-.089 11.17zm9.183-9.35s0 .107-.161.107h-2.082v9.243c.003.02.002.039-.004.058a.124.124 0 0 1-.031.05.126.126 0 0 1-.107.035h-1.779a.124.124 0 0 1-.108-.036.127.127 0 0 1-.035-.108v-9.206h-2.171c-.089 0-.16 0-.16-.107v-1.677a.157.157 0 0 1 .053-.102.158.158 0 0 1 .107-.041h6.46c.039 0 .078.014.107.04.03.027.049.063.053.103l-.142 1.641zm4.395.143v2.64h4.449a.142.142 0 0 1 .142.126v1.784a.117.117 0 0 1-.042.095.123.123 0 0 1-.1.03h-4.449v2.605h5.339a.144.144 0 0 1 .112.035c.015.013.027.03.036.048a.15.15 0 0 1 .012.06v1.784a.15.15 0 0 1-.012.059.142.142 0 0 1-.148.084h-7.368a.142.142 0 0 1-.142-.143V40.877c0-.018.004-.036.011-.052a.116.116 0 0 1 .032-.043.119.119 0 0 1 .099-.03h7.368c.107 0 .16 0 .16.125v1.784a.144.144 0 0 1-.017.054.145.145 0 0 1-.143.071l-5.339.036zm11.585 4.728h-1.228v4.479a.143.143 0 0 1-.16.143h-1.78a.14.14 0 0 1-.1-.042.142.142 0 0 1-.042-.101V40.877c0-.018.004-.036.011-.052a.116.116 0 0 1 .032-.043.119.119 0 0 1 .099-.03h3.666a3.392 3.392 0 0 1 3.561 1.975c.2.445.303.927.301 1.415a3.019 3.019 0 0 1-2.1 3.07c.712 1.605 1.477 3.175 2.189 4.781 0 .09 0 .178-.125.178h-2.028a.196.196 0 0 1-.143 0l-2.153-4.62zm-1.228-2.087h1.655c.481 0 1.78 0 1.78-1.32 0-1.321-1.335-1.321-1.78-1.321h-1.655v2.64zm13.649 1.802c.003.02.002.04-.005.058a.122.122 0 0 1-.079.08.126.126 0 0 1-.058.005h-5.588a.143.143 0 0 1-.16-.143V45.57a.14.14 0 0 1 .104-.121.142.142 0 0 1 .056-.004h5.588a.124.124 0 0 1 .142.125v1.695zm8.044 3.604h-3.684l-.445 1.213a.143.143 0 0 1-.142 0h-1.993c-.143 0-.196 0-.16-.178l4.448-11.49c0-.108.249-.108.285 0l4.449 11.49c0 .09 0 .178-.125.178h-2.028a.163.163 0 0 1-.125 0l-.48-1.213zm-2.99-1.91h2.296l-1.139-3.425-1.157 3.426zm15.571.215a.268.268 0 0 1 .231 0l1.281 1.302a.12.12 0 0 1 .035.044.116.116 0 0 1 .013.054.116.116 0 0 1-.013.055.12.12 0 0 1-.035.044 5.667 5.667 0 0 1-8.785-.963 5.703 5.703 0 0 1-.895-3.212 5.61 5.61 0 0 1 3.45-5.485 5.577 5.577 0 0 1 2.244-.421 5.48 5.48 0 0 1 3.986 1.641.12.12 0 0 1 .035.044.116.116 0 0 1 .013.054.116.116 0 0 1-.013.055.12.12 0 0 1-.035.043l-1.281 1.285a.176.176 0 0 1-.231 0 3.556 3.556 0 0 0-2.474-1.035 3.55 3.55 0 0 0-2.609 1.132 3.578 3.578 0 0 0-.95 2.687 3.592 3.592 0 0 0 .984 2.627 3.568 3.568 0 0 0 2.575 1.102 3.425 3.425 0 0 0 2.474-1.053zm10.108-6.495s0 .107-.161.107h-2.153v9.243a.15.15 0 0 1-.012.059.13.13 0 0 1-.036.048.14.14 0 0 1-.112.035h-1.779a.143.143 0 0 1-.143-.142v-9.207h-2.171c-.089 0-.16 0-.16-.107v-1.677a.157.157 0 0 1 .053-.102.159.159 0 0 1 .107-.041h6.46a.144.144 0 0 1 .112.035c.015.014.028.03.036.049a.15.15 0 0 1 .012.059l-.053 1.641zm2.26-1.802a.143.143 0 0 1 .054-.096.144.144 0 0 1 .106-.029h1.779c.107 0 .178 0 .178.125V52.03a.16.16 0 0 1-.018.06.17.17 0 0 1-.041.048.161.161 0 0 1-.119.034h-1.779a.162.162 0 0 1-.108-.04.16.16 0 0 1-.052-.102V40.877zm13.239-.125c.125 0 .196 0 .143.179l-4.431 11.437a.147.147 0 0 1-.052.067.144.144 0 0 1-.163 0 .14.14 0 0 1-.052-.067l-4.396-11.437c0-.107 0-.179.125-.179h1.993a.158.158 0 0 1 .142 0l2.278 6.388 2.278-6.316a.177.177 0 0 1 .142 0l1.993-.072zm4.342 2.07v2.64h4.449c.035 0 .069.013.095.036a.148.148 0 0 1 .048.09v1.784a.128.128 0 0 1-.09.121.123.123 0 0 1-.053.004h-4.449v2.605h5.339c.04 0 .078.014.107.04.03.027.049.063.053.102v1.785a.157.157 0 0 1-.053.102.157.157 0 0 1-.107.04h-7.367a.143.143 0 0 1-.143-.142V40.877a.128.128 0 0 1 .09-.121.123.123 0 0 1 .053-.004h7.367a.14.14 0 0 1 .106.03.139.139 0 0 1 .054.095v1.784a.155.155 0 0 1-.058.091.159.159 0 0 1-.102.034l-5.339.036z" fill="#fff"/><path d="M179.288 52.029a.162.162 0 0 0 .16.142h1.78a.163.163 0 0 0 .119-.034.166.166 0 0 0 .059-.108V40.895a.161.161 0 0 0-.178-.143h-1.78a.162.162 0 0 0-.16.143v11.134zm14.877-11.152a.16.16 0 0 0-.059-.108.163.163 0 0 0-.119-.034h-1.779a.161.161 0 0 0-.161.142v7.565l-5.196-7.654h-1.886a.143.143 0 0 0-.16.143v11.151a.14.14 0 0 0 .16.143h1.779a.16.16 0 0 0 .143-.143v-7.476l5.196 7.601h1.904a.16.16 0 0 0 .178-.143V40.877zm9.182.16s0-.124-.178-.124h-6.441c-.107 0-.161 0-.161.125v1.784s0 .125.161.125h2.153v9.224c0 .02.004.04.012.06.008.018.02.035.036.048a.142.142 0 0 0 .112.035h1.779a.143.143 0 0 0 .143-.142v-9.35h2.153c.107 0 .178 0 .178-.125l.053-1.66zm9.77 1.785c.107 0 .16 0 .16-.125v-1.784a.141.141 0 0 0-.16-.143h-7.349a.161.161 0 0 0-.161.143v11.134a.161.161 0 0 0 .161.143h7.349a.143.143 0 0 0 .16-.143v-1.785s0-.125-.16-.125h-5.338v-2.64h4.431c.106 0 .16 0 .16-.125v-1.784c0-.02-.004-.04-.013-.06a.14.14 0 0 0-.147-.083h-4.431v-2.623h5.338zm5.018 0h1.655c.338 0 1.691 0 1.691 1.32s-1.228 1.32-1.691 1.32h-1.655v-2.64zm3.293 9.26a.247.247 0 0 0 .142 0h2.029c.124 0 .178 0 .142-.178-.712-1.606-1.477-3.176-2.207-4.782a3.01 3.01 0 0 0 2.1-3.069 3.41 3.41 0 0 0-2.41-3.272 3.393 3.393 0 0 0-1.434-.118h-3.683a.16.16 0 0 0-.143.143V51.94a.161.161 0 0 0 .143.142h1.779c.04 0 .078-.014.108-.04a.16.16 0 0 0 .052-.102v-4.39h1.21l2.172 4.532zm10.374-6.494a.15.15 0 0 0-.012-.06.13.13 0 0 0-.036-.048.14.14 0 0 0-.112-.035h-5.641a.157.157 0 0 0-.107.04.157.157 0 0 0-.053.103v1.695a.156.156 0 0 0 .058.09.159.159 0 0 0 .102.035h5.588a.145.145 0 0 0 .106-.03.155.155 0 0 0 .037-.042.144.144 0 0 0 .017-.053l.053-1.695zm6.193-.054l1.157 3.426h-2.296l1.139-3.426zm2.313 6.548a.161.161 0 0 0 .143 0h2.011c.106 0 .178 0 .124-.178l-4.431-11.473a.176.176 0 0 0-.065-.062.175.175 0 0 0-.173 0 .18.18 0 0 0-.064.062l-4.431 11.473c0 .089 0 .178.142.178h2.011a.158.158 0 0 0 .142 0l.427-1.213h3.702l.462 1.213zm9.646-1.855a3.445 3.445 0 0 1-2.605-1.06 3.467 3.467 0 0 1-.955-2.652 3.566 3.566 0 0 1 2.057-3.407 3.548 3.548 0 0 1 3.923.624.263.263 0 0 0 .231 0l1.281-1.303a.12.12 0 0 0 .035-.043.116.116 0 0 0 .013-.055.116.116 0 0 0-.013-.054.12.12 0 0 0-.035-.044 5.689 5.689 0 0 0-6.288-1.15 5.716 5.716 0 0 0-3.392 5.432 5.564 5.564 0 0 0 1.584 4.152 5.549 5.549 0 0 0 4.11 1.665 5.632 5.632 0 0 0 3.986-1.642.12.12 0 0 0 .035-.043.116.116 0 0 0 .013-.055.116.116 0 0 0-.013-.054.12.12 0 0 0-.035-.044l-1.281-1.302a.177.177 0 0 0-.231 0 3.557 3.557 0 0 1-2.42 1.035zm12.599-9.19s0-.124-.178-.124h-6.442c-.107 0-.16 0-.16.125v1.784s0 .125.16.125h2.1v9.224a.141.141 0 0 0 .16.143h1.779a.143.143 0 0 0 .143-.142v-9.35h2.153c.107 0 .178 0 .178-.125l.107-1.66zm2.26 10.992a.16.16 0 0 0 .018.06.17.17 0 0 0 .041.048.161.161 0 0 0 .119.034h1.779c.04 0 .078-.014.108-.04a.16.16 0 0 0 .052-.102V40.895a.16.16 0 0 0-.052-.102.161.161 0 0 0-.108-.04h-1.779a.16.16 0 0 0-.119.033.17.17 0 0 0-.041.049.16.16 0 0 0-.018.06v11.134zm11.264-11.277a.159.159 0 0 0-.142.09l-2.278 6.37-2.278-6.37a.14.14 0 0 0-.057-.068.14.14 0 0 0-.085-.022h-1.976c-.124 0-.178.09-.142.179l4.396 11.437a.14.14 0 0 0 .133.093.141.141 0 0 0 .133-.093l4.432-11.437c0-.09 0-.179-.143-.179h-1.993zm11.709 2.07a.142.142 0 0 0 .143-.071.167.167 0 0 0 .018-.054v-1.784a.161.161 0 0 0-.161-.143h-7.367a.137.137 0 0 0-.054.011.133.133 0 0 0-.046.03.13.13 0 0 0-.031.047.129.129 0 0 0-.011.055v11.134c0 .018.003.037.011.054a.13.13 0 0 0 .031.047.13.13 0 0 0 .046.03c.017.008.035.011.054.011h7.367a.161.161 0 0 0 .161-.142v-1.785a.167.167 0 0 0-.018-.053.138.138 0 0 0-.087-.068.142.142 0 0 0-.056-.004h-5.338v-2.64h4.449a.124.124 0 0 0 .142-.125v-1.784a.142.142 0 0 0-.042-.101.14.14 0 0 0-.1-.042h-4.449v-2.623h5.338z" stroke="#fff" stroke-width=".06" stroke-miterlimit="10"/><path d="M184.769 66.552l.961.964a4.198 4.198 0 0 1-4.567.876 4.205 4.205 0 0 1-2.573-3.882 4.217 4.217 0 0 1 2.573-3.883 4.192 4.192 0 0 1 4.567.876l-.961.964a2.658 2.658 0 0 0-1.922-.803 2.612 2.612 0 0 0-2.564 1.745c-.123.35-.171.722-.141 1.092a2.717 2.717 0 0 0 1.607 2.627 2.699 2.699 0 0 0 3.02-.576zm9.076-6.137v8.19h-1.37v-3.426h-3.399v3.425h-1.353v-8.19h1.353v3.39h3.399v-3.39h1.37zm6.175 7.244h-2.865l-.338.945h-1.477l3.256-8.421 3.257 8.421h-1.46l-.373-.945zm-2.492-1.196h1.976l-.979-2.837-.997 2.837zm14.646 2.141h-1.352v-5.031l-2.349 5.031h-1.282l-2.544-5.138v5.138h-1.353v-8.19h1.353l3.114 6.353 2.954-6.352h1.388l.071 8.19zm7.954-2.355c0 2.248-2.277 2.355-2.829 2.355h-2.705v-8.172h2.705s2.723 0 2.723 2.284a1.78 1.78 0 0 1-1.371 1.784 1.779 1.779 0 0 1 1.477 1.75zm-4.181-2.409h1.352s1.352 0 1.352-1.017-1.352-1.034-1.352-1.034h-1.352v2.051zm2.829 2.373c0-1.088-1.477-1.016-1.477-1.016h-1.352v2.051h1.352c.587 0 1.477-.142 1.477-1.035zm4.769-4.424v2.051h3.399v1.339h-3.399v2.052h4.093v1.373h-5.445v-8.19h5.445v1.375h-4.093zm0-2.945l2.225-1.213.605.982-2.26 1.195-.57-.964zm8.524 6.335h-1.121v3.425h-1.388v-8.19h2.705s2.723 0 2.723 2.392a2.196 2.196 0 0 1-1.566 2.176l1.672 3.569h-1.512l-1.513-3.372zm-1.121-1.339h1.353s1.37 0 1.37-1.034c0-1.035-1.37-1.017-1.37-1.017h-1.353v2.051zm12.848-3.425l-3.061 4.318v3.871h-1.37v-3.871l-3.061-4.318h1.673l2.082 2.926 1.958-2.926h1.779z" fill="#fff"/></g><defs><clipPath id="clip0"><path fill="#fff" d="M0 0H288V87H0z"/></clipPath></defs></svg>