<svg viewBox="0 0 151 87">
  <defs/>
  <defs>
    <clipPath id="a">
      <path fill="none" d="M0 0h151v87H0z"/>
    </clipPath>
    <clipPath id="b">
      <path d="M0 0h288v87H0z"/>
    </clipPath>
  </defs>
  <g clip-path="url(#a)">
    <g clip-path="url(#b)">
      <path d="M24.11 57.42a11.07 11.07 0 117.8-3.25 11.01 11.01 0 01-7.8 3.25zm0-35.22a24.08 24.08 0 109.23 1.84 24.07 24.07 0 00-9.23-1.84M58.14 36.67l25.4-.06L43.8 76.5 54 86.73l49.9-50.15h.02V22.2H58.14zM129.1 51.83a7.84 7.84 0 115.54-2.3 7.82 7.82 0 01-5.54 2.3zm21.75-7.85a21.73 21.73 0 10-30.43 19.99L107.3 77.13l9.84 9.87 28.1-28.3a21.7 21.7 0 005.65-14.67M39.68 0L9 .07V13.1h30.68z"/>
      <path fill="none" stroke="#fff" stroke-miterlimit="10" stroke-width=".61" d="M165.62 11.22v64.54"/>
      <path d="M185.36 32.95c.1 0 .16 0 .16.13v1.78a.15.15 0 01-.02.06.14.14 0 01-.08.08.14.14 0 01-.06 0h-5.93a.16.16 0 01-.1-.03.17.17 0 01-.06-.1v-11.1a.17.17 0 01.06-.1.16.16 0 01.1-.03h1.78a.16.16 0 01.1.03.15.15 0 01.06.1v9.18zM193.54 33.76h-3.68l-.45 1.21a.14.14 0 01-.07.02.15.15 0 01-.07-.02h-2.01c-.12 0-.18 0-.14-.18l4.45-11.49c0-.1.25-.1.28 0l4.45 11.5c0 .08 0 .17-.14.17h-2.01a.14.14 0 01-.13 0zm-2.99-1.91h2.3l-1.14-3.43zM212.44 27.09c0 3.35-3.56 3.39-3.86 3.39h-1.7v4.47a.14.14 0 01-.13.15h-1.87a.16.16 0 01-.14-.15V23.77a.16.16 0 01.05-.09.16.16 0 01.09-.04h3.7c.46 0 3.86.07 3.86 3.45zm-2.17 0c0-1.29-1.44-1.34-1.78-1.34h-1.69v2.62h1.69c.37 0 1.78-.04 1.78-1.29zM221.05 32.95a.14.14 0 01.06 0 .14.14 0 01.05.03.15.15 0 01.04.04.14.14 0 01.01.06v1.78a.16.16 0 01-.16.14h-5.92a.14.14 0 01-.11-.03.13.13 0 01-.04-.05.15.15 0 01-.01-.06v-11.1a.14.14 0 01.02-.05.14.14 0 01.03-.04.14.14 0 01.05-.03.14.14 0 01.06 0h1.78a.14.14 0 01.1.03.14.14 0 01.04.04.13.13 0 01.02.06v9.18zM229.24 33.76h-3.7l-.43 1.21a.16.16 0 01-.16 0h-1.99c-.12 0-.2 0-.14-.18l4.43-11.49a.17.17 0 01.15-.08.18.18 0 01.15.08l4.43 11.5c0 .08 0 .17-.12.17h-2.03a.16.16 0 01-.13 0zm-2.99-1.91h2.28l-1.14-3.43zM241.82 32.12a.23.23 0 01.22 0l1.3 1.32a.14.14 0 010 .2 5.72 5.72 0 01-4 1.64A5.55 5.55 0 01234 31.7a5.6 5.6 0 01-.36-2.24 5.7 5.7 0 019.7-4.28.14.14 0 010 .2l-1.3 1.28a.16.16 0 01-.1.04.16.16 0 01-.12-.04 3.56 3.56 0 00-6.05 2.8 3.56 3.56 0 006.05 2.66zM248.25 25.71v2.64h4.44a.14.14 0 01.15.13v1.78a.12.12 0 01-.06.06.13.13 0 01-.09.01h-4.44v2.68h5.33a.14.14 0 01.06 0 .14.14 0 01.05.02.15.15 0 01.04.05.14.14 0 01.01.05v1.78a.16.16 0 01-.05.1.16.16 0 01-.1.04h-7.37a.16.16 0 01-.11-.04.17.17 0 01-.05-.1V23.77a.17.17 0 01.05-.1.16.16 0 01.1-.03h7.37a.16.16 0 01.1.03.16.16 0 01.06.1v1.78a.16.16 0 01-.06.1.16.16 0 01-.1.03z"/>
      <path d="M181.51 32.95v-9.17a.18.18 0 00-.02-.06.15.15 0 00-.04-.04.15.15 0 00-.05-.03.16.16 0 00-.07 0h-1.78a.16.16 0 00-.16.14v11.13a.16.16 0 00.16.14h5.93a.16.16 0 00.1-.04.16.16 0 00.06-.1v-1.79a.16.16 0 00-.06-.09.16.16 0 00-.1-.03zM191.7 28.42l1.15 3.43h-2.3zm2.27 6.55a.16.16 0 00.14 0h2.01c.1 0 .18 0 .13-.18l-4.43-11.47a.16.16 0 00-.15-.09.16.16 0 00-.08.03.17.17 0 00-.06.06l-4.45 11.47c0 .1 0 .18.14.18h2.02a.16.16 0 00.14 0l.44-1.2h3.69zM208.6 28.37h-1.78v-2.62h1.78c.25 0 1.78 0 1.78 1.33s-1.5 1.29-1.78 1.29zm0-4.73h-3.7a.16.16 0 00-.14.15v11.16a.16.16 0 00.14.15h1.78a.14.14 0 00.06 0 .14.14 0 00.05-.04.14.14 0 00.04-.05.13.13 0 000-.06v-4.48h1.79c.27 0 3.84 0 3.84-3.38s-3.42-3.45-3.86-3.45zM217.1 32.95v-9.17a.16.16 0 00-.16-.14h-1.78a.16.16 0 00-.06 0 .15.15 0 00-.06.03.17.17 0 00-.04.05.16.16 0 00-.02.06v11.14a.16.16 0 00.02.06.17.17 0 00.04.05.15.15 0 00.06.03.16.16 0 00.06 0h5.9a.14.14 0 00.07 0 .14.14 0 00.05-.03.16.16 0 00.04-.05.15.15 0 000-.06v-1.79a.13.13 0 000-.05.14.14 0 00-.05-.04.14.14 0 00-.1-.03zM227.4 28.42l1.15 3.43h-2.3zm2.32 6.55a.14.14 0 00.13 0h2c.13 0 .18 0 .15-.18l-4.45-11.47a.16.16 0 00-.14-.09.16.16 0 00-.09.03.17.17 0 00-.06.06l-4.43 11.47c0 .1 0 .18.15.18h1.99a.14.14 0 00.14 0l.45-1.2h3.68zM239.35 33.12a3.46 3.46 0 01-3.37-2.29 3.48 3.48 0 01-.2-1.42 3.54 3.54 0 016.06-2.79.27.27 0 00.23 0l1.28-1.28a.12.12 0 00.03-.05.12.12 0 000-.1.12.12 0 00-.03-.05 5.68 5.68 0 00-9.68 4.26 5.56 5.56 0 005.67 5.82 5.68 5.68 0 004-1.64.12.12 0 00.04-.04.12.12 0 000-.11.12.12 0 00-.04-.05l-1.33-1.26a.2.2 0 00-.12-.04.2.2 0 00-.11.04 3.55 3.55 0 01-2.44 1zM253.64 25.71c.1 0 .16 0 .16-.12V23.8a.15.15 0 00-.02-.06.14.14 0 00-.03-.05.15.15 0 00-.05-.03.14.14 0 00-.06 0h-7.37a.16.16 0 00-.14.14v11.14a.16.16 0 00.14.14h7.37a.14.14 0 00.06 0 .16.16 0 00.05-.04.14.14 0 00.04-.05.15.15 0 000-.05v-1.79s0-.12-.15-.12h-5.34v-2.7h4.4a.14.14 0 00.1-.04.14.14 0 00.04-.1v-1.64a.14.14 0 00-.04-.1.14.14 0 00-.1-.04h-4.43v-2.7z" class="e"/>
      <path d="M179.29 40.88a.13.13 0 01.02-.06.14.14 0 01.03-.04.14.14 0 01.1-.03h1.79a.14.14 0 01.05 0 .14.14 0 01.05.03.15.15 0 01.04.04.14.14 0 01.02.05v11.16a.16.16 0 01-.16.14h-1.78a.16.16 0 01-.1-.04.16.16 0 01-.06-.1zM194.15 52.03a.15.15 0 01-.02.06.13.13 0 01-.03.05.14.14 0 01-.05.03.14.14 0 01-.06 0h-1.9l-5.24-7.56v7.5a.14.14 0 01-.04.1.14.14 0 01-.1.05h-1.78a.13.13 0 01-.06 0 .13.13 0 01-.04-.03.14.14 0 01-.04-.05.13.13 0 010-.06V40.86a.12.12 0 01.02-.05.13.13 0 01.03-.05.13.13 0 01.04-.02.12.12 0 01.06 0h1.86a.12.12 0 01.05-.01.12.12 0 01.06 0l5.23 7.66v-7.53a.14.14 0 01.02-.05.14.14 0 01.03-.04.14.14 0 01.1-.03h1.79a.14.14 0 01.05 0 .14.14 0 01.05.02.14.14 0 01.04.04.14.14 0 01.02.06zM203.33 42.68s0 .1-.16.1h-2.08v9.25a.13.13 0 010 .06.12.12 0 01-.03.05.12.12 0 01-.05.03.13.13 0 01-.06 0h-1.78a.13.13 0 01-.1-.04.12.12 0 01-.04-.05.13.13 0 010-.06v-9.2h-2.17c-.1 0-.16 0-.16-.1v-1.68a.16.16 0 01.16-.15h6.46a.16.16 0 01.16.15zM207.72 42.82v2.64h4.45a.14.14 0 01.15.13v1.78a.12.12 0 01-.01.05.14.14 0 01-.04.05.13.13 0 01-.04.02.12.12 0 01-.06 0h-4.44v2.6h5.33a.14.14 0 01.06 0 .14.14 0 01.06.04.16.16 0 01.03.05.15.15 0 01.01.06v1.78a.15.15 0 010 .06.16.16 0 01-.04.05.14.14 0 01-.06.03.14.14 0 01-.06 0h-7.36a.14.14 0 01-.14-.14V40.88a.13.13 0 010-.06.12.12 0 01.04-.04.12.12 0 01.05-.02.13.13 0 01.05 0h7.37c.1 0 .16 0 .16.12v1.78a.14.14 0 01-.02.06.15.15 0 01-.04.04.14.14 0 01-.05.03.14.14 0 01-.05 0zM219.31 47.55h-1.23v4.48a.15.15 0 01-.01.06.14.14 0 01-.15.08h-1.78a.14.14 0 01-.14-.14V40.88a.13.13 0 01.01-.06.12.12 0 01.03-.04.12.12 0 01.05-.02.13.13 0 01.05 0h3.67a3.4 3.4 0 013.86 3.39 3.02 3.02 0 01-2.1 3.07c.71 1.6 1.48 3.17 2.19 4.78 0 .09 0 .17-.13.17h-2.02a.2.2 0 01-.15 0zm-1.23-2.09h1.66c.48 0 1.78 0 1.78-1.32s-1.34-1.32-1.78-1.32h-1.66zM231.73 47.27a.12.12 0 010 .05.12.12 0 01-.03.05.13.13 0 01-.05.03.13.13 0 01-.06 0H226a.14.14 0 01-.11-.03.13.13 0 01-.04-.05.15.15 0 01-.01-.06v-1.7a.14.14 0 01.02-.05.14.14 0 01.03-.04.14.14 0 01.05-.03.14.14 0 01.06 0h5.59a.12.12 0 01.05 0 .13.13 0 01.05.03.13.13 0 01.03.04.12.12 0 01.01.05zM239.78 50.87h-3.69l-.44 1.21a.14.14 0 01-.07.02.14.14 0 01-.08-.02h-1.99c-.14 0-.2 0-.16-.18l4.45-11.49c0-.1.25-.1.28 0l4.45 11.49c0 .09 0 .18-.12.18h-2.03a.16.16 0 01-.13 0zm-3-1.91h2.3l-1.13-3.43zM252.36 49.17a.27.27 0 01.11-.02.26.26 0 01.12.02l1.28 1.3a.12.12 0 01.03.05.12.12 0 010 .1.12.12 0 01-.03.05 5.68 5.68 0 01-9.68-4.17 5.6 5.6 0 015.7-5.91 5.5 5.5 0 013.98 1.64.12.12 0 01.03.04.12.12 0 010 .11.12.12 0 01-.03.05l-1.28 1.28a.18.18 0 01-.23 0 3.55 3.55 0 00-6.04 2.79 3.57 3.57 0 002.16 3.44 3.55 3.55 0 001.4.28 3.43 3.43 0 002.48-1.05zM262.46 42.68s0 .1-.16.1h-2.15v9.25a.15.15 0 01-.01.06.13.13 0 01-.04.05.14.14 0 01-.05.03.14.14 0 01-.06 0h-1.78a.14.14 0 01-.14-.14v-9.2h-2.17c-.09 0-.16 0-.16-.11v-1.68a.16.16 0 01.05-.1.16.16 0 01.11-.04h6.46a.14.14 0 01.06 0 .14.14 0 01.05.03.14.14 0 01.04.05.15.15 0 01.01.06zM264.72 40.88a.14.14 0 01.02-.06.14.14 0 01.04-.04.14.14 0 01.05-.02.14.14 0 01.05 0h1.78c.11 0 .18 0 .18.12v11.15a.16.16 0 01-.02.06.17.17 0 01-.04.05.15.15 0 01-.05.03.16.16 0 01-.07 0h-1.78a.16.16 0 01-.16-.14zM277.96 40.75c.13 0 .2 0 .15.18l-4.44 11.44a.15.15 0 01-.05.06.14.14 0 01-.08.03.14.14 0 01-.13-.1L269 40.94c0-.1 0-.18.12-.18h2a.16.16 0 01.14 0l2.28 6.4 2.27-6.33a.18.18 0 01.08-.01.17.17 0 01.07.01zM282.3 42.82v2.64h4.45a.14.14 0 01.1.04.15.15 0 01.05.09v1.78a.13.13 0 01-.01.05.13.13 0 01-.04.05.12.12 0 01-.04.02.12.12 0 01-.06 0h-4.45v2.6h5.34a.16.16 0 01.16.15v1.78a.16.16 0 01-.16.14h-7.37a.14.14 0 01-.14-.14V40.88a.14.14 0 01.01-.06.13.13 0 01.03-.04.12.12 0 01.05-.02.12.12 0 01.05 0h7.37a.14.14 0 01.06 0 .14.14 0 01.05.02.14.14 0 01.03.04.14.14 0 01.02.06v1.78a.15.15 0 01-.06.1.16.16 0 01-.1.03z"/>
      <path d="M179.29 52.03a.16.16 0 00.05.1.16.16 0 00.1.04h1.79a.16.16 0 00.06 0 .17.17 0 00.06-.03.17.17 0 00.04-.05.16.16 0 00.02-.06V40.9a.16.16 0 00-.02-.06.17.17 0 00-.04-.05.17.17 0 00-.06-.03.16.16 0 00-.06 0h-1.78a.16.16 0 00-.1.04.16.16 0 00-.06.1zM194.16 40.88a.16.16 0 00-.01-.06.16.16 0 00-.04-.05.17.17 0 00-.06-.03.16.16 0 00-.06 0h-1.78a.16.16 0 00-.11.04.17.17 0 00-.05.1v7.56l-5.2-7.65h-1.89a.14.14 0 00-.06 0 .15.15 0 00-.05.03.14.14 0 00-.04.05.15.15 0 000 .06v11.15a.15.15 0 000 .06.14.14 0 00.04.05.15.15 0 00.05.03.14.14 0 00.06 0h1.78a.16.16 0 00.14-.14v-7.47l5.2 7.6h1.9a.16.16 0 00.07 0 .17.17 0 00.05-.04.16.16 0 00.04-.05.16.16 0 00.02-.06zM203.35 41.04s0-.13-.18-.13h-6.44c-.1 0-.16 0-.16.13v1.78s0 .13.16.13h2.15v9.22a.15.15 0 00.01.06.13.13 0 00.04.05.14.14 0 00.11.03h1.78a.14.14 0 00.14-.14v-9.35h2.16c.1 0 .17 0 .17-.12zM213.12 42.82c.1 0 .16 0 .16-.12V40.9a.15.15 0 00-.02-.06.14.14 0 00-.03-.05.15.15 0 00-.05-.02.14.14 0 00-.06-.01h-7.35a.16.16 0 00-.11.04.17.17 0 00-.05.1v11.14a.17.17 0 00.05.1.16.16 0 00.1.04h7.36a.14.14 0 00.06 0 .15.15 0 00.05-.04.14.14 0 00.04-.05.15.15 0 000-.06v-1.78s0-.12-.15-.12h-5.34V47.5h4.43c.1 0 .16 0 .16-.13V45.6a.14.14 0 00-.01-.06.14.14 0 00-.04-.05.14.14 0 00-.05-.03.14.14 0 00-.06 0h-4.43v-2.63zM218.13 42.82h1.66c.34 0 1.7 0 1.7 1.32s-1.24 1.32-1.7 1.32h-1.66zm3.3 9.26a.25.25 0 00.14 0h2.03c.12 0 .18 0 .14-.18-.71-1.6-1.48-3.17-2.2-4.78a3.01 3.01 0 002.1-3.07 3.4 3.4 0 00-3.85-3.39h-3.68a.16.16 0 00-.15.15v11.13a.16.16 0 00.15.14h1.78a.16.16 0 00.16-.14v-4.39h1.2zM231.8 45.59a.15.15 0 00-.01-.06.13.13 0 00-.04-.05.14.14 0 00-.05-.03.14.14 0 00-.06 0H226a.16.16 0 00-.16.14v1.7a.16.16 0 00.06.08.16.16 0 00.1.04h5.59a.14.14 0 00.1-.03.15.15 0 00.04-.04.14.14 0 00.02-.06zM238 45.53l1.15 3.43h-2.3zm2.3 6.55a.17.17 0 00.08.02.16.16 0 00.07-.02h2.01c.1 0 .18 0 .13-.18l-4.44-11.47a.18.18 0 00-.15-.08.18.18 0 00-.15.08l-4.43 11.47c0 .09 0 .18.14.18h2.01a.16.16 0 00.15 0l.42-1.22h3.7zM249.95 50.23a3.46 3.46 0 01-3.36-2.29 3.48 3.48 0 01-.2-1.42 3.57 3.57 0 012.06-3.41 3.55 3.55 0 013.92.62.26.26 0 00.12.03.27.27 0 00.11-.03l1.28-1.3a.12.12 0 00.04-.04.12.12 0 000-.11.12.12 0 00-.04-.04 5.7 5.7 0 00-9.68 4.28 5.55 5.55 0 005.7 5.81 5.63 5.63 0 003.98-1.64.12.12 0 00.04-.04.12.12 0 000-.11.12.12 0 00-.04-.04l-1.28-1.3a.18.18 0 00-.23 0 3.56 3.56 0 01-2.42 1.03zM262.55 41.04s0-.13-.18-.13h-6.44c-.1 0-.16 0-.16.13v1.78s0 .13.16.13h2.1v9.22a.13.13 0 00.02.06.14.14 0 00.03.05.15.15 0 00.05.03.14.14 0 00.06 0h1.78a.14.14 0 00.15-.14v-9.35h2.15c.1 0 .18 0 .18-.12zM264.81 52.03a.16.16 0 00.02.06.17.17 0 00.04.05.15.15 0 00.06.03.16.16 0 00.06 0h1.78a.16.16 0 00.16-.14V40.9a.16.16 0 00-.16-.14h-1.78a.16.16 0 00-.06 0 .15.15 0 00-.06.03.17.17 0 00-.04.05.16.16 0 00-.02.06zM276.08 40.75a.16.16 0 00-.14.1l-2.28 6.36-2.28-6.37a.14.14 0 00-.14-.09h-1.98c-.12 0-.18.1-.14.18l4.4 11.44a.14.14 0 00.26 0l4.44-11.44c0-.09 0-.18-.15-.18zM287.79 42.82a.14.14 0 00.1-.03.14.14 0 00.04-.04.17.17 0 00.02-.05V40.9a.17.17 0 00-.06-.1.16.16 0 00-.1-.04h-7.37a.14.14 0 00-.06.01.13.13 0 00-.04.03.14.14 0 00-.04.1v11.14a.14.14 0 00.04.1.13.13 0 00.05.03.14.14 0 00.05 0h7.37a.16.16 0 00.1-.03.17.17 0 00.06-.1v-1.79a.17.17 0 00-.02-.05.14.14 0 00-.04-.04.14.14 0 00-.1-.03h-5.34V47.5h4.45a.12.12 0 00.05 0 .12.12 0 00.05-.03.12.12 0 00.03-.04.12.12 0 00.01-.05v-1.8a.14.14 0 00-.14-.13h-4.45v-2.63z" class="e"/>
      <path d="M184.77 66.55l.96.97a4.21 4.21 0 110-6.02l-.96.97a2.67 2.67 0 00-1.92-.8 2.61 2.61 0 00-2 .8 2.63 2.63 0 00-.7 2.03 2.7 2.7 0 004.62 2.06zM193.84 60.41v8.19h-1.37v-3.42h-3.4v3.42h-1.35v-8.19h1.35v3.39h3.4v-3.39zM200.02 67.66h-2.87l-.33.95h-1.48l3.26-8.43 3.25 8.43h-1.46zm-2.5-1.2h1.98l-.98-2.84zM212.17 68.6h-1.35v-5.03l-2.35 5.03h-1.28l-2.54-5.14v5.14h-1.36v-8.19h1.36l3.11 6.35 2.96-6.35h1.38zM220.13 66.25c0 2.25-2.28 2.35-2.83 2.35h-2.7v-8.17h2.7s2.72 0 2.72 2.29a1.78 1.78 0 01-1.37 1.78 1.78 1.78 0 011.48 1.75zm-4.18-2.41h1.35s1.35 0 1.35-1.02-1.35-1.03-1.35-1.03h-1.35zm2.83 2.37c0-1.08-1.48-1.01-1.48-1.01h-1.35v2.05h1.35c.59 0 1.48-.14 1.48-1.04zM223.54 61.79v2.05h3.4v1.34h-3.4v2.05h4.1v1.37h-5.45v-8.19h5.45v1.37zm0-2.94l2.23-1.22.6.98-2.26 1.2zM232.07 65.18h-1.12v3.42h-1.39v-8.19h2.7s2.73 0 2.73 2.4a2.2 2.2 0 01-1.57 2.17l1.67 3.57h-1.5zm-1.12-1.34h1.35s1.37 0 1.37-1.03-1.37-1.02-1.37-1.02h-1.35zM243.8 60.41l-3.06 4.32v3.87h-1.37v-3.87l-3.07-4.32h1.67l2.09 2.93 1.95-2.93z"/>
    </g>
  </g>
</svg>
